<svg width="32" height="32" viewBox="0 0 32 32" fill="none" xmlns="http://www.w3.org/2000/svg">
<path d="M18.6451 31.9994C16.2057 31.9994 14.8303 31.0125 14.0741 30.0704C12.7436 28.4133 12.5885 25.9658 13.1095 23.8834C12.1437 24.3477 10.8828 24.9222 9.58559 25.3216C7.52126 25.9575 5.99317 25.9552 4.91526 25.3145C3.91067 24.7181 3.39323 23.6256 3.37626 22.0677C3.35081 19.757 4.96434 18.9742 6.20403 18.6261C4.16273 17.8451 0.879324 16.5496 0.147389 14.1646C-0.210701 12.9972 0.0843743 11.7489 1.02535 10.4559C1.6773 9.55919 2.51467 9.05836 3.51502 8.96633C5.31516 8.80116 7.26133 10.0376 8.87668 11.3649C8.03265 9.63116 7.37645 7.48684 7.94964 5.40268C8.45981 3.54859 9.85764 2.02426 12.1043 0.872164C14.0705 -0.136584 15.7628 -0.271084 17.1334 0.472794C18.4936 1.21018 19.4425 2.741 20.0357 5.15256C20.4998 7.04027 20.6482 9.11971 20.7464 10.496C20.7682 10.8039 20.7918 11.1325 20.8161 11.4068C21.1832 11.2281 21.6589 10.975 22.0745 10.7544C24.5551 9.43649 27.9518 7.63136 30.0167 8.41182C30.6911 8.66666 31.1807 9.17811 31.4327 9.89072C32.2495 12.2049 32.1841 14.1104 31.2376 15.5533C29.569 18.097 25.6021 18.4975 23.2324 18.7364C22.8695 18.773 22.455 18.8149 22.1321 18.8603C22.2448 19.1099 22.3902 19.4125 22.5259 19.6962C23.1034 20.902 23.8941 22.5526 24.3903 24.2757C25.0192 26.4601 24.9992 28.1485 24.3291 29.4386C23.6959 30.6568 22.509 31.4437 20.8009 31.7764C20.0035 31.9322 19.288 32 18.6457 32L18.6451 31.9994ZM14.3844 21.7603C14.5637 21.7603 14.7522 21.814 14.9212 21.9751C15.1623 22.2039 15.2223 22.549 15.0751 22.8534C14.1856 24.6881 13.9505 27.5226 15.2672 29.1625C16.2754 30.4179 18.0368 30.8107 20.5028 30.33C21.7492 30.0869 22.558 29.5778 22.9767 28.7726C24.134 26.5451 22.1939 22.4954 21.1517 20.3198C20.9245 19.8455 20.7282 19.4355 20.6034 19.1287C20.4834 18.8332 20.2023 18.14 20.7724 17.7466C21.1693 17.4729 21.7994 17.3985 23.0749 17.2699C25.3089 17.0446 28.685 16.7036 29.9598 14.7599C30.6451 13.7145 30.6584 12.238 29.9992 10.3697C29.861 9.97803 29.6429 9.85238 29.4684 9.78631C28.0585 9.25421 24.6375 11.0723 22.7998 12.0486C22.209 12.3625 21.6983 12.6338 21.2965 12.8185C20.8954 13.0025 20.2895 13.2809 19.8066 12.9524C19.3819 12.6627 19.3479 12.1843 19.2346 10.598C19.0589 8.13397 18.6936 3.00705 16.396 1.76116C15.501 1.27566 14.2947 1.41547 12.8102 2.17705C10.9519 3.13034 9.80917 4.34379 9.4129 5.78494C8.65855 8.52803 10.6265 11.5673 11.6838 13.2007C12.2861 14.1304 12.5606 14.5552 12.2607 15.0424C12.134 15.2483 11.9207 15.384 11.6766 15.4158C11.1743 15.4807 10.8604 15.1858 9.81826 14.2089C8.3453 12.8279 5.60115 10.2559 3.6574 10.4352C3.10906 10.4854 2.65221 10.7715 2.2614 11.3089C1.59429 12.2262 1.37738 13.0226 1.59853 13.7434C2.13355 15.4866 5.10188 16.6216 6.87598 17.2994C7.32253 17.4699 7.70788 17.6174 7.99508 17.7507C8.26592 17.8764 8.82881 18.1377 8.8476 18.7046C8.85426 18.9069 8.79488 19.406 8.10597 19.6714C7.88118 19.7582 7.61579 19.8154 7.30799 19.8809C5.88229 20.187 4.87467 20.5221 4.89103 22.0523C4.90254 23.0823 5.16853 23.7377 5.70416 24.0563C6.36762 24.4503 7.55217 24.4019 9.12934 23.9159C10.5865 23.4669 12.0401 22.7579 13.0017 22.2883C13.3198 22.1331 13.5706 22.0104 13.7651 21.9249C13.9069 21.8624 14.1378 21.7609 14.385 21.7609L14.3844 21.7603Z" fill="#00C28A"/>
<path d="M15.6937 20.2502C15.621 20.2502 15.5531 20.246 15.4913 20.2395C14.534 20.1363 13.6936 19.2851 13.447 18.1684C13.1816 16.9673 13.67 15.8453 14.7212 15.24C14.8939 15.1409 15.4495 14.8861 16.0633 14.7333C17.0067 14.4985 17.7265 14.5906 18.2009 15.0082C19.2292 15.9125 18.3948 17.6746 18.1204 18.2533C17.3224 19.9381 16.3239 20.2507 15.6931 20.2507L15.6937 20.2502ZM15.4919 16.5095C14.8018 16.9065 14.8679 17.5849 14.9285 17.8581C15.0454 18.3878 15.3986 18.7453 15.6586 18.7736C15.9106 18.8007 16.3293 18.5158 16.7462 17.6357C17.2473 16.5768 17.1957 16.181 17.1758 16.0995C16.9001 15.9886 15.9033 16.2783 15.4925 16.5101L15.4919 16.5095Z" fill="#00C28A"/>
</svg>
